# xmcd
#
# Track frame offsets: 
#        150
#        18489
#        33968
#        47636
#        60919
#        77446
#        94966
#        109566
#        124553
#        139656
#        155377
#        174147
#        190377
#        211864
#
# Disc length: 3013 seconds
#
# Revision: 1
# Processed by: cddbd v1.5.2PL0 Copyright (c) Steve Scherf et al.
# Submitted via: ExactAudioCopy v1.0b3
#
DISCID=a40bc30e
DTITLE=Rapazolla - A Mais de Mil
DYEAR=2005
DGENRE=Axé
TTITLE0=Aqui é o seu lugar
TTITLE1=Me roube um beijo
TTITLE2=Sete vidas
TTITLE3=Alegria do Brasil (Cadê você)
TTITLE4=Planeta tá girando
TTITLE5=O que passou, passou
TTITLE6=Rakatá (com Wisin y Yandel)
TTITLE7=Me leva
TTITLE8=Quero ver balançar
TTITLE9=Vou te encontrar
TTITLE10=Deixa eu dizer que te amo
TTITLE11=Foi na praia
TTITLE12=Vejo o dia anunciar
TTITLE13=Sou como sou
EXTD=
EXTT0=
EXTT1=
EXTT2=
EXTT3=
EXTT4=
EXTT5=
EXTT6=
EXTT7=
EXTT8=
EXTT9=
EXTT10=
EXTT11=
EXTT12=
EXTT13=
PLAYORDER=
